<svg width="33" height="33" viewBox="0 0 33 33" fill="none" xmlns="http://www.w3.org/2000/svg">
<g clip-path="url(#clip0_2197_5661)">
<circle cx="16.3253" cy="16.1056" r="16.0705" fill="#2196F3"/>
<g clip-path="url(#clip1_2197_5661)">
<path d="M16.7271 9.07422C16.4729 9.07422 16.2218 9.11816 15.9833 9.20291L7.17902 12.3825C6.88084 12.4923 6.6831 12.7748 6.6831 13.0918C6.6831 13.4088 6.88084 13.6913 7.17902 13.8012L8.99637 14.4572C8.48161 15.267 8.18971 16.2243 8.18971 17.2319V18.1139C8.18971 19.0053 7.85072 19.9249 7.48976 20.65C7.28574 21.058 7.05347 21.4598 6.78354 21.8301C6.6831 21.9651 6.65485 22.1409 6.71135 22.301C6.76785 22.461 6.89967 22.5803 7.06289 22.6211L9.0717 23.1233C9.20353 23.1578 9.34477 23.1327 9.4609 23.0605C9.57704 22.9884 9.65865 22.8691 9.68376 22.7341C9.95369 21.3907 9.81872 20.1854 9.61784 19.3223C9.5174 18.8766 9.38244 18.4215 9.19411 18.004V17.2319C9.19411 16.284 9.51426 15.3894 10.0698 14.6738C10.4747 14.1873 10.9989 13.7949 11.6141 13.5532L16.542 11.6166C16.7993 11.5162 17.0912 11.6417 17.1917 11.8991C17.2921 12.1565 17.1666 12.4484 16.9092 12.5488L11.9813 14.4854C11.5921 14.6392 11.25 14.8747 10.9706 15.1634L15.9801 16.9713C16.2187 17.0561 16.4698 17.1 16.724 17.1C16.9782 17.1 17.2293 17.0561 17.4679 16.9713L26.2753 13.8012C26.5734 13.6945 26.7712 13.4088 26.7712 13.0918C26.7712 12.7748 26.5734 12.4923 26.2753 12.3825L17.471 9.20291C17.2325 9.11816 16.9814 9.07422 16.7271 9.07422ZM10.7007 20.876C10.7007 21.9839 13.4001 23.1359 16.7271 23.1359C20.0542 23.1359 22.7536 21.9839 22.7536 20.876L22.2733 16.3122L17.81 17.9255C17.4616 18.0511 17.0944 18.1139 16.7271 18.1139C16.3599 18.1139 15.9895 18.0511 15.6443 17.9255L11.1809 16.3122L10.7007 20.876Z" fill="white"/>
</g>
</g>
<defs>
<clipPath id="clip0_2197_5661">
<rect width="32.1409" height="32.1409" fill="white" transform="translate(0.254883 0.0351562)"/>
</clipPath>
<clipPath id="clip1_2197_5661">
<rect width="20.0881" height="16.0705" fill="white" transform="translate(6.68262 8.07031)"/>
</clipPath>
</defs>
</svg>
