<svg width="33" height="33" viewBox="0 0 33 33" fill="none" xmlns="http://www.w3.org/2000/svg">
<g clip-path="url(#clip0_2197_5656)">
<circle cx="16.7209" cy="16.1056" r="16.0705" fill="#2196F3"/>
<g clip-path="url(#clip1_2197_5656)">
<path d="M16.7704 9.53051C13.2377 9.53051 10.3752 12.393 10.3752 15.9257V17.1556C10.3752 17.5645 10.0462 17.8935 9.63732 17.8935C9.2284 17.8935 8.89941 17.5645 8.89941 17.1556V15.9257C8.89941 11.5782 12.4229 8.05469 16.7704 8.05469C21.118 8.05469 24.6415 11.5782 24.6415 15.9257V20.3563C24.6415 21.8505 23.4301 23.0619 21.9327 23.0619L18.5414 23.0588C18.2862 23.4985 17.8097 23.7968 17.2624 23.7968H16.2785C15.4637 23.7968 14.8027 23.1357 14.8027 22.3209C14.8027 21.5062 15.4637 20.8451 16.2785 20.8451H17.2624C17.8097 20.8451 18.2862 21.1434 18.5414 21.583L21.9358 21.5861C22.6153 21.5861 23.1657 21.0357 23.1657 20.3563V15.9257C23.1657 12.393 20.3032 9.53051 16.7704 9.53051ZM13.3269 14.4499H13.8188C14.363 14.4499 14.8027 14.8896 14.8027 15.4338V18.8774C14.8027 19.4216 14.363 19.8612 13.8188 19.8612H13.3269C12.2415 19.8612 11.3591 18.9788 11.3591 17.8935V16.4177C11.3591 15.3323 12.2415 14.4499 13.3269 14.4499ZM20.214 14.4499C21.2994 14.4499 22.1818 15.3323 22.1818 16.4177V17.8935C22.1818 18.9788 21.2994 19.8612 20.214 19.8612H19.7221C19.1779 19.8612 18.7382 19.4216 18.7382 18.8774V15.4338C18.7382 14.8896 19.1779 14.4499 19.7221 14.4499H20.214Z" fill="white"/>
</g>
</g>
<defs>
<clipPath id="clip0_2197_5656">
<rect width="32.1409" height="32.1409" fill="white" transform="translate(0.650391 0.0351562)"/>
</clipPath>
<clipPath id="clip1_2197_5656">
<rect width="15.7421" height="15.7421" fill="white" transform="translate(8.89941 8.05469)"/>
</clipPath>
</defs>
</svg>
