<svg width="33" height="33" viewBox="0 0 33 33" fill="none" xmlns="http://www.w3.org/2000/svg">
<g clip-path="url(#clip0_2197_5671)">
<circle cx="16.3048" cy="16.8947" r="16.0705" fill="#21005D"/>
<g clip-path="url(#clip1_2197_5671)">
<path d="M23.0569 20.2211L19.9328 17.097C19.3165 16.4807 18.396 16.3606 17.6544 16.7261L14.8103 13.8821V12.2253L11.3953 9.66406L9.68786 11.3715L12.2491 14.7865H13.9059L16.7499 17.6306C16.3871 18.3722 16.5045 19.2927 17.1208 19.909L20.2449 23.0332C20.6344 23.4227 21.2641 23.4227 21.6509 23.0332L23.0569 21.6271C23.4438 21.2376 23.4438 20.608 23.0569 20.2211ZM18.5374 15.6669C19.2925 15.6669 20.0021 15.9604 20.5357 16.494L21.0533 17.0116C21.4749 16.8275 21.875 16.5714 22.2219 16.2245C23.2117 15.2347 23.5478 13.8421 23.233 12.5775C23.1743 12.3373 22.8729 12.2546 22.6968 12.4307L20.7118 14.4157L18.9003 14.1142L18.5988 12.3027L20.5838 10.3177C20.7598 10.1416 20.6745 9.84015 20.4317 9.77878C19.1671 9.46663 17.7744 9.8028 16.7873 10.7899C16.0269 11.5503 15.6694 12.5535 15.6881 13.5539L17.8785 15.7443C18.0946 15.6936 18.3187 15.6669 18.5374 15.6669ZM15.7654 17.8547L14.2527 16.3419L10.1868 20.4106C9.51978 21.0775 9.51978 22.1581 10.1868 22.8251C10.8538 23.492 11.9343 23.492 12.6013 22.8251L15.8988 19.5275C15.6961 18.9965 15.6347 18.4176 15.7654 17.8547ZM11.3953 22.2568C11.0432 22.2568 10.755 21.9686 10.755 21.6165C10.755 21.2616 11.0405 20.9762 11.3953 20.9762C11.7502 20.9762 12.0357 21.2616 12.0357 21.6165C12.0357 21.9686 11.7502 22.2568 11.3953 22.2568Z" fill="white"/>
</g>
</g>
<defs>
<clipPath id="clip0_2197_5671">
<rect width="32.1409" height="32.1409" fill="white" transform="translate(0.234375 0.824219)"/>
</clipPath>
<clipPath id="clip1_2197_5671">
<rect width="13.6599" height="13.6599" fill="white" transform="translate(9.68848 9.66406)"/>
</clipPath>
</defs>
</svg>
