<svg width="33" height="33" viewBox="0 0 33 33" fill="none" xmlns="http://www.w3.org/2000/svg">
<g clip-path="url(#clip0_2197_5652)">
<circle cx="16.3048" cy="16.1056" r="16.0705" fill="#2E7D32"/>
<path d="M14.9942 10.3569C14.5154 9.98644 13.9284 9.7841 13.3242 9.7841C11.8194 9.7841 10.6025 11.001 10.6025 12.5058V12.6824C10.6025 13.1327 10.708 13.5745 10.9075 13.9792L11.5772 15.3215C11.7054 15.5751 11.7938 15.8458 11.8451 16.1251L12.891 21.9902C12.948 22.3094 13.2216 22.5431 13.5436 22.5545C13.8657 22.5659 14.1535 22.3436 14.2276 22.0301L15.0512 18.5732C15.1681 18.0973 15.5899 17.7638 16.0743 17.7638C16.5588 17.7638 16.9806 18.0973 17.0946 18.5703L17.9182 22.0273C17.9923 22.3436 18.2802 22.563 18.6022 22.5516C18.9242 22.5402 19.1978 22.3066 19.2548 21.9874L20.3007 16.1223C20.352 15.843 20.4404 15.5722 20.5686 15.3186L21.2384 13.9763C21.4407 13.5745 21.5433 13.1299 21.5433 12.6796V12.6197C21.5433 11.0523 20.2722 9.78125 18.7048 9.78125C18.018 9.78125 17.3539 10.032 16.8353 10.4823L16.7441 10.5621L17.2998 10.9953C17.4993 11.1492 17.5335 11.437 17.3796 11.6365C17.2257 11.836 16.9379 11.8702 16.7384 11.7163L16.043 11.1749L14.9885 10.3541L14.9942 10.3569Z" fill="white"/>
</g>
<defs>
<clipPath id="clip0_2197_5652">
<rect width="32.1409" height="32.1409" fill="white" transform="translate(0.234375 0.0351562)"/>
</clipPath>
</defs>
</svg>
