<svg width="33" height="33" viewBox="0 0 33 33" fill="none" xmlns="http://www.w3.org/2000/svg">
<g clip-path="url(#clip0_2197_5665)">
<circle cx="16.9298" cy="16.1056" r="16.0705" fill="#2196F3"/>
<g clip-path="url(#clip1_2197_5665)">
<path d="M17.861 7.40407L17.857 7.59742H20.4954C22.6303 7.59742 24.3624 9.32949 24.3624 11.4644C24.3624 13.5993 22.6303 15.3313 20.4954 15.3313H18.8842V12.1089H20.4954C20.8499 12.1089 21.1399 11.8188 21.1399 11.4644C21.1399 11.1099 20.8499 10.8199 20.4954 10.8199H18.8842H17.7563L17.575 16.6203H19.2064C21.3413 16.6203 23.0734 18.3524 23.0734 20.4873C23.0734 22.6221 21.3413 24.3542 19.2064 24.3542H18.5619V21.1318H19.2064C19.5609 21.1318 19.8509 20.8417 19.8509 20.4873C19.8509 20.1328 19.5609 19.8428 19.2064 19.8428H17.4743L17.3495 23.8507L17.2931 25.6029V25.6432C17.281 26.0017 16.9869 26.2877 16.6284 26.2877C16.2699 26.2877 15.9759 26.0017 15.9638 25.6432V25.6029L15.9235 24.3542H14.3727C13.4825 24.3542 12.7615 23.6332 12.7615 22.743C12.7615 21.8528 13.4825 21.1318 14.3727 21.1318H15.8228L15.7825 19.8428H15.0172C12.8823 19.8428 11.1503 18.1107 11.1503 15.9758C11.1503 14.0585 12.544 12.4674 14.3727 12.1612V15.9758C14.3727 16.3303 14.6627 16.6203 15.0172 16.6203H15.6818L15.5006 10.8199H14.3727H13.833C13.4704 11.5812 12.693 12.1089 11.7947 12.1089H11.1503C9.90558 12.1089 8.89453 11.0978 8.89453 9.85314C8.89453 8.60847 9.90558 7.59742 11.1503 7.59742H11.4725H11.7947H15.3999L15.3958 7.40407L15.3797 6.95293C15.3797 6.92473 15.3797 6.90056 15.3797 6.87639C15.3999 6.20773 15.9477 5.66797 16.6284 5.66797C17.3092 5.66797 17.857 6.20773 17.8771 6.87639C17.8771 6.90056 17.8771 6.92876 17.8771 6.95293L17.861 7.40407ZM11.4725 10.1754C11.6434 10.1754 11.8074 10.1075 11.9282 9.98662C12.0491 9.86575 12.117 9.70183 12.117 9.5309C12.117 9.35997 12.0491 9.19604 11.9282 9.07517C11.8074 8.95431 11.6434 8.8864 11.4725 8.8864C11.3016 8.8864 11.1376 8.95431 11.0168 9.07517C10.8959 9.19604 10.828 9.35997 10.828 9.5309C10.828 9.70183 10.8959 9.86575 11.0168 9.98662C11.1376 10.1075 11.3016 10.1754 11.4725 10.1754Z" fill="white"/>
</g>
</g>
<defs>
<clipPath id="clip0_2197_5665">
<rect width="32.1409" height="32.1409" fill="white" transform="translate(0.859375 0.0351562)"/>
</clipPath>
<clipPath id="clip1_2197_5665">
<rect width="15.4678" height="20.6238" fill="white" transform="translate(8.89453 5.66016)"/>
</clipPath>
</defs>
</svg>
